<svg width="24" height="24" viewBox="0 0 24 24" fill="none" xmlns="http://www.w3.org/2000/svg">
<g clip-path="url(#clip0_312_24)">
<path d="M12 22.75C17.9371 22.75 22.75 17.9371 22.75 12C22.75 6.06294 17.9371 1.25 12 1.25C6.06294 1.25 1.25 6.06294 1.25 12C1.25 17.9371 6.06294 22.75 12 22.75Z" stroke="white" stroke-width="2" stroke-linecap="round" stroke-linejoin="round"/>
<path d="M3.52539 18.614C5.78489 13.9345 4.43939 7.87849 8.08389 6.92549C11.7284 5.97249 14.1119 7.59799 16.0189 8.15899C17.9259 8.71999 19.5079 9.01699 19.8599 10.794C20.3644 13.3465 12.0649 17.855 13.8319 22.75" stroke="white" stroke-width="2" stroke-linecap="round" stroke-linejoin="round"/>
<path d="M11.1777 14.486C12.7757 15.7475 14.4257 15.3285 18.0757 13.7995M15.9247 7.76849C15.9247 6.63199 13.8507 5.71949 12.5652 6.72899" stroke="white" stroke-width="1.5" stroke-linecap="round" stroke-linejoin="round"/>
<path d="M10.5 11C11.3284 11 12 10.3284 12 9.5C12 8.67157 11.3284 8 10.5 8C9.67157 8 9 8.67157 9 9.5C9 10.3284 9.67157 11 10.5 11Z" stroke="white" stroke-width="1.5" stroke-linecap="round" stroke-linejoin="round"/>
<path d="M17.5 12C17.7761 12 18 11.7761 18 11.5C18 11.2239 17.7761 11 17.5 11C17.2239 11 17 11.2239 17 11.5C17 11.7761 17.2239 12 17.5 12Z" fill="white"/>
</g>
<defs>
<clipPath id="clip0_312_24">
<rect width="24" height="24" fill="white"/>
</clipPath>
</defs>
</svg>
