<svg width="83" height="95" viewBox="0 0 83 95" fill="none" xmlns="http://www.w3.org/2000/svg">
<path fill-rule="evenodd" clip-rule="evenodd" d="M50.0235 33.8143C53.0442 32.3664 56.8879 30.235 60.7362 27.3148C61.5476 28.9345 61.6365 30.3479 61.2184 31.4893C60.9222 32.2936 60.3639 32.9932 59.6299 33.5498C58.8349 34.1513 57.8422 34.5892 56.7447 34.8259C54.6624 35.2768 52.2312 35.0135 50.0235 33.8143ZM50.5472 48.6498L54.5459 50.8702C46.3812 55.269 44.1617 63.437 41.525 71.3927C38.8888 63.437 36.6688 55.269 28.5045 50.8702L32.5032 48.6498C32.8901 48.5093 33.2207 48.2547 33.4478 47.9225C33.6748 47.5903 33.7867 47.1975 33.7672 46.8004C33.4009 39.3497 35.4937 36.0548 38.3167 33.9861C39.3292 33.2451 40.4345 32.8729 41.525 32.8729C42.6156 32.8729 43.7209 33.2451 44.7338 33.9861C47.5567 36.0548 49.6495 39.3497 49.2832 46.8004C49.2638 47.1975 49.3756 47.5903 49.6027 47.9225C49.8297 48.2547 50.1604 48.5093 50.5472 48.6498ZM41.525 0C46.1472 0.119289 50.7809 0.981844 54.8023 2.65981C57.5871 3.82327 60.1855 5.36012 62.5384 7.19787C63.6009 8.02752 64.4759 8.829 65.4397 9.75168C68.0391 9.83806 71.838 7.06213 73.6017 4.46465C70.5664 14.03 56.7158 25.3258 47.1268 29.648C47.1229 29.6464 47.1202 29.6442 47.1173 29.6423C45.3964 28.3792 43.4609 27.7476 41.525 27.7476C39.5892 27.7476 37.654 28.3792 35.9332 29.6423C35.9302 29.6439 35.9276 29.6468 35.9236 29.648C26.3343 25.3258 12.484 14.03 9.44874 4.46465C11.2121 7.06213 15.011 9.83806 17.6104 9.75168C18.5746 8.82932 19.4495 8.02752 20.5117 7.19787C22.8646 5.36012 25.463 3.82327 28.2478 2.65981C32.2695 0.981844 36.9032 0.119289 41.525 0ZM33.0266 33.8143C30.0062 32.3664 26.1622 30.235 22.3142 27.3148C21.5028 28.9345 21.4139 30.3479 21.8317 31.4893C22.1282 32.2936 22.6865 32.9932 23.4202 33.5498C24.2155 34.1513 25.2083 34.5892 26.3057 34.8259C28.388 35.2768 30.8189 35.0135 33.0266 33.8143Z" fill="white"/>
<path fill-rule="evenodd" clip-rule="evenodd" d="M64.9509 23.7364C67.0694 21.6813 68.9361 19.4065 70.4371 17.3767L71.1994 18.756C73.6537 23.476 74.9289 28.177 74.9289 33.4675L74.9236 41.8627L74.9697 46.2147C75.1474 56.8989 77.5523 67.7086 83 77.6011L71.602 68.7661L63.5371 81.3466L55.0643 73.6794L41.525 94.8L27.9858 73.6797L19.5133 81.3469L11.4484 68.7664L0.0500488 77.6014C5.49776 67.709 7.90265 56.8992 8.08073 46.215L8.12681 41.863L8.12154 33.4678C8.12154 28.177 9.39641 23.476 11.8513 18.7563L12.6134 17.377C14.1144 19.4068 15.9807 21.6813 18.0996 23.7367L17.4379 25.0577C16.1526 27.6236 15.7269 30.4925 16.7283 33.221C17.3738 34.9784 18.5518 36.4855 20.0706 37.636C21.5453 38.7533 23.2905 39.5063 25.1177 39.9019C26.308 40.1594 27.5207 40.2654 28.7254 40.2293C28.4443 41.7611 28.3215 43.3499 28.3136 44.9686L17.5617 50.9382L25.8587 55.4088C26.5218 55.7663 27.1531 56.1757 27.7461 56.6331C34.5865 62.5368 38.6992 80.0021 41.5254 88.533C44.3519 80.0021 48.4642 62.5368 55.305 56.6331C55.8979 56.1756 56.5292 55.7662 57.1924 55.4088L65.4894 50.9382L54.7371 44.9686C54.7292 43.3499 54.6065 41.7611 54.3254 40.2293C55.5301 40.2654 56.7428 40.1594 57.933 39.9019C59.7602 39.5063 61.5058 38.7533 62.9801 37.636C64.4986 36.4855 65.677 34.9784 66.3222 33.221C67.3238 30.4925 66.8979 27.6239 65.6128 25.0577L64.9509 23.7364Z" fill="white"/>
</svg>
