<svg width="24" height="24" viewBox="0 0 24 24" fill="none" xmlns="http://www.w3.org/2000/svg">
<path d="M11.9833 15.7869L15.5495 19.8825C16.8695 21.3991 17.5306 22.158 18.2225 21.9725C18.9133 21.788 19.1509 20.7903 19.625 18.7936L22.254 7.71808C22.9855 4.64253 23.3507 3.10587 22.5389 2.34698C21.7271 1.58809 20.3202 2.15254 17.5064 3.28031L4.45373 8.51696C2.20312 9.42029 1.07782 9.8714 1.00632 10.647C0.997895 10.726 0.997895 10.8057 1.00632 10.8847C1.07562 11.6614 2.19872 12.1158 4.44713 13.0258C5.46464 13.4381 5.97394 13.6447 6.33914 14.0392C6.38021 14.0836 6.41981 14.1295 6.45794 14.1769C6.79454 14.5992 6.93754 15.1547 7.22464 16.2614L7.76255 18.3358C8.04085 19.4136 8.18055 19.9536 8.54685 20.0269C8.91315 20.1003 9.23105 19.6536 9.86796 18.7592L11.9833 15.7869ZM11.9833 15.7869L11.6346 15.4203C11.2364 15.0003 11.0373 14.7914 11.0373 14.5314C11.0373 14.2714 11.2353 14.0614 11.6346 13.6425L15.5649 9.50474" stroke="white" stroke-width="2" stroke-linecap="round" stroke-linejoin="round"/>
</svg>
